<?xml version="1.0" encoding="utf-8"?>

<!DOCTYPE svg PUBLIC "-//W3C//DTD SVG 1.1//EN" "http://www.w3.org/Graphics/SVG/1.1/DTD/svg11.dtd">
<!-- Uploaded to: SVG Repo, www.svgrepo.com, Generator: SVG Repo Mixer Tools -->
<svg height="800px" width="800px" version="1.1" id="_x32_" xmlns="http://www.w3.org/2000/svg" xmlns:xlink="http://www.w3.org/1999/xlink" 
	 viewBox="0 0 512 512"  xml:space="preserve">
<style type="text/css">
	.st0{fill:#000000;}
</style>
<g>
	<path class="st0" d="M277.821,153.703c29.216,0,54.766,15.433,69.06,38.609l10.771-6.639c-16.484-26.76-46.078-44.63-79.832-44.63
		c-33.753,0-63.356,17.87-79.84,44.63l10.772,6.639C223.046,169.136,248.606,153.703,277.821,153.703z"/>
	<path class="st0" d="M277.821,128.082c14.55-0.009,26.319-11.796,26.328-26.337c-0.009-14.541-11.787-26.319-26.328-26.328
		c-14.541,0.009-26.319,11.786-26.328,26.328C251.502,116.286,263.27,128.072,277.821,128.082z M277.821,88.078
		c7.549,0.009,13.659,6.119,13.667,13.667c-0.008,7.549-6.127,13.667-13.667,13.676c-7.54-0.009-13.658-6.127-13.667-13.676
		C264.163,94.197,270.273,88.087,277.821,88.078z"/>
	<path class="st0" d="M496.152,190.556c-9.994-10.966-24.359-18.011-40.798-17.994c-1.598,0-3.222,0.062-4.856,0.204
		c-24.032,1.925-41.134,13.12-52.391,25.366c-7.892,8.537-13.076,17.525-16.431,24.553l-25.224-20.351H197.998l-1.854,1.854
		c-4.379,4.388-11.222,10.453-19.388,15.292c-8.176,4.865-17.578,8.432-27.141,8.414c-2.322,0-4.661-0.202-7.027-0.653
		c-4.132-0.644-10.93-4.944-18.328-11.672c-11.204-10.021-24.121-24.836-37.629-37.938c-6.772-6.56-13.711-12.705-20.854-17.667
		c-7.151-4.935-14.523-8.759-22.337-10.304c-11.372-2.233-19.688-3.205-25.957-3.213c-4.573,0.035-8.052,0.441-11.256,1.862
		c-1.59,0.724-3.161,1.793-4.38,3.426c-1.227,1.616-1.871,3.753-1.845,5.606c0.133,4.07,1.978,6.587,3.805,8.856
		c1.916,2.252,4.23,4.22,6.736,6.021c0.133,0.071,1.087,0.901,2.278,2.172c4.344,4.52,12.598,14.603,23.979,28.879
		c11.416,14.302,26.072,32.914,43.677,54.943c27.025,33.796,51.349,62.314,81.094,82.577c29.727,20.28,64.849,31.854,111.845,31.81
		c27.078-0.009,51.755-9.006,72.336-21.251c19.052-11.336,34.45-25.392,45.521-38.22c6.781,1.871,14.391,3.01,22.664,3.01
		c22.019,0.026,48.382-7.884,72.556-30.001c17.648-16.086,25.533-35.66,25.507-53.936C512,216.354,506.172,201.521,496.152,190.556z
		 M477.947,276.796c-21.905,19.989-44.948,26.663-64.01,26.681c-8.59,0.009-16.36-1.377-22.7-3.522l-4.141-1.404l-2.772,3.39
		c-10.259,12.519-25.922,27.175-45.037,38.529c-19.14,11.381-41.646,19.477-65.872,19.468
		c-45.001-0.044-76.927-10.753-104.729-29.612c-27.784-18.876-51.455-46.361-78.322-80.008
		c-20.085-25.136-36.34-45.822-48.382-60.831c-6.021-7.505-10.992-13.587-14.895-18.143c-1.96-2.278-3.646-4.168-5.121-5.704
		c-1.492-1.545-2.657-2.692-4.061-3.717c-1.254-0.892-2.304-1.801-3.205-2.666c0.821-0.08,1.651-0.159,2.781-0.151
		c4.926-0.008,12.644,0.83,23.521,2.967c7.072,1.351,15.371,6.145,23.891,13.067c12.828,10.338,26.08,25.101,38.591,37.903
		c6.269,6.401,12.37,12.325,18.365,17.039c6.012,4.689,11.883,8.326,18.408,9.606c3.16,0.592,6.295,0.865,9.358,0.857
		c12.705-0.009,24.165-4.592,33.603-10.18c8.344-4.962,15.071-10.71,19.936-15.371h148.829l34.946,28.191l3.134-8.079
		c2.374-6.136,7.637-17.922,17.33-28.384c9.739-10.463,23.539-19.619,44.136-21.349l-0.512-6.303l0.522,6.303
		c1.288-0.106,2.56-0.159,3.814-0.159c12.82,0.027,23.609,5.342,31.457,13.88c7.831,8.555,12.537,20.377,12.529,33.108
		C499.312,246.875,493.211,262.812,477.947,276.796z"/>
	<path class="st0" d="M471.934,211.542c-3.452-3.629-9.2-7.028-16.581-6.984h-0.15l-1.827,0.08h-0.141l-0.124,0.017
		c-10.612,0.839-20.218,4.838-27.962,11.725c-7.778,6.869-13.702,16.422-18.011,28.262h0.009l-0.459,1.175h-0.009
		c-3.708,8.882-7.292,21.154-8.626,30.194l-0.865,5.951l5.898,1.165c3.037,0.6,6.648,1.015,10.842,1.015
		c12.599,0.044,31.758-4.008,50.978-21.631c9.473-8.661,15.088-19.344,15.106-30.362c0.008-3.814-0.689-7.629-2.102-11.249
		C477.143,218.958,475.457,215.179,471.934,211.542z M456.36,253.17c-16.908,15.398-32.358,18.268-42.432,18.311
		c-0.768,0-1.404-0.07-2.11-0.097c1.58-6.851,4.132-14.982,6.534-20.66l0.035-0.088l0.591-1.528l0.026-0.062l0.035-0.079
		c3.779-10.41,8.714-18.011,14.489-23.106c5.774-5.085,12.396-7.875,20.562-8.59l1.271-0.052c3.646,0.044,5.669,1.351,7.505,3.152
		c1.775,1.793,2.896,4.159,3.249,5.104c0.838,2.162,1.245,4.378,1.245,6.675C467.378,238.682,463.917,246.266,456.36,253.17z"/>
	<path class="st0" d="M313.984,368.634l-7.522,10.171c9.402,6.949,18.391,14.956,24.844,23.652
		c5.059,6.834,8.468,13.968,9.739,21.464H272.7h-68.362c1.218-7.152,4.379-13.968,9.076-20.519
		c6.039-8.432,14.515-16.244,23.512-23.088l-7.664-10.065c-9.623,7.329-18.991,15.84-26.133,25.772
		c-7.116,9.898-12.042,21.41-12.042,34.23v6.33H272.7h81.624v-6.33c0-13.296-5.297-25.181-12.854-35.334
		C333.894,384.73,323.996,376.042,313.984,368.634z"/>
</g>
</svg>